<?xml version="1.0" standalone="no"?>
<!DOCTYPE svg PUBLIC "-//W3C//DTD SVG 20010904//EN"
 "http://www.w3.org/TR/2001/REC-SVG-20010904/DTD/svg10.dtd">
<svg version="1.0" xmlns="http://www.w3.org/2000/svg"
 width="1037.000000pt" height="1051.000000pt" viewBox="0 0 1037.000000 1051.000000"
 preserveAspectRatio="xMidYMid meet">

<g transform="translate(0.000000,1051.000000) scale(0.100000,-0.100000)"
fill="#000000" stroke="none">
<path d="M0 5255 l0 -5255 5185 0 5185 0 0 5255 0 5255 -5185 0 -5185 0 0
-5255z m5482 2760 c4 -21 1 -25 -17 -25 -31 0 -41 37 -11 43 11 2 22 5 22 6 1
0 4 -10 6 -24z m-717 -83 c30 -6 3 -10 -110 -14 -264 -11 -458 -72 -627 -199
-81 -60 -215 -202 -247 -260 -126 -230 -156 -353 -156 -634 0 -189 13 -303 49
-425 8 -25 24 -79 36 -120 12 -41 34 -102 47 -135 31 -74 136 -287 165 -335
22 -35 133 -204 165 -250 21 -31 109 -137 137 -166 12 -12 53 -55 93 -97 73
-77 260 -243 323 -287 19 -13 39 -30 43 -37 4 -7 13 -13 18 -13 6 0 25 -11 43
-25 18 -14 38 -25 44 -25 6 0 12 -4 14 -8 11 -26 287 -166 423 -215 158 -56
203 -67 421 -106 126 -23 351 -10 509 28 206 50 422 196 542 366 45 64 133
234 133 258 0 8 7 21 17 28 15 13 15 10 9 -26 -21 -115 -90 -280 -164 -390
-46 -69 -174 -205 -222 -238 -14 -9 -43 -29 -65 -44 -106 -75 -299 -144 -464
-167 -138 -20 -213 -20 -363 -1 -498 62 -993 321 -1407 736 -57 57 -115 120
-130 139 -14 19 -39 48 -55 65 -25 27 -59 70 -133 170 -12 17 -34 50 -50 75
-15 25 -30 47 -33 50 -23 19 -198 358 -220 425 -7 22 -16 45 -20 50 -12 16
-76 241 -99 350 -38 180 -42 439 -10 604 20 101 71 265 90 285 5 6 9 18 9 28
0 10 4 18 9 18 5 0 13 10 17 22 16 50 137 201 216 270 94 81 274 188 318 188
9 0 20 4 26 9 14 12 121 40 221 56 91 15 355 13 438 -3z m1147 -69 c8 -4 -12
-53 -22 -53 -3 0 -14 6 -24 13 -16 12 -17 16 -5 34 11 19 24 20 51 6z m-1057
-82 c20 -5 -5 -9 -80 -14 -293 -18 -483 -90 -663 -252 -96 -86 -203 -280 -242
-440 -28 -113 -38 -331 -21 -460 45 -342 204 -692 460 -1015 141 -178 321
-342 567 -517 38 -28 252 -142 317 -169 246 -104 508 -153 717 -133 360 35
616 207 762 515 23 49 45 100 49 114 l7 25 1 -27 c1 -36 -43 -168 -81 -239
-77 -146 -232 -296 -382 -368 -266 -128 -621 -134 -975 -15 -211 70 -471 217
-671 378 -97 78 -300 280 -376 376 -238 297 -391 608 -466 940 -20 92 -23 131
-23 310 1 217 8 260 66 420 130 355 474 577 894 577 61 1 124 -2 140 -6z m588
-203 c20 -16 41 -26 47 -23 15 9 23 -61 10 -100 -27 -82 -122 -138 -200 -118
-19 5 -34 14 -33 21 2 6 -6 26 -17 44 -37 60 -20 161 32 189 62 33 106 30 161
-13z m435 -91 c42 -33 -18 -127 -82 -127 -32 0 -36 3 -47 39 -15 51 -5 87 28
105 27 14 70 7 101 -17z m-741 -117 c48 -23 89 -69 114 -128 l19 -43 46 7 c68
10 203 -23 215 -53 12 -32 25 -36 77 -23 55 13 83 5 125 -34 15 -14 34 -23 42
-20 8 4 15 2 15 -4 0 -15 37 -21 70 -12 38 11 128 -10 169 -39 58 -41 93 -105
99 -180 2 -36 8 -73 13 -82 5 -10 1 -19 -12 -27 -27 -17 -23 -41 9 -47 43 -9
92 -37 104 -59 10 -18 12 -18 23 -3 11 15 13 13 18 -18 3 -19 3 -51 0 -70 -5
-30 -2 -36 21 -45 35 -13 33 -17 -7 -12 -22 2 -38 -2 -46 -12 -21 -25 -6 -46
34 -46 26 0 45 -9 74 -35 21 -19 46 -35 55 -35 19 0 23 -60 4 -89 -11 -18 -13
-18 -47 3 -48 30 -216 97 -319 126 -45 13 -90 31 -100 39 -58 52 -194 162
-237 191 -27 19 -51 37 -53 42 -2 4 -10 8 -18 8 -8 0 -14 5 -14 10 0 6 -4 10
-9 10 -5 0 -38 17 -72 38 -58 35 -114 56 -219 82 -97 24 -245 32 -485 26 -286
-7 -386 -14 -399 -27 -6 -5 -22 -9 -37 -9 -109 0 -341 -97 -433 -181 -47 -42
-56 -48 -56 -30 0 11 17 38 38 60 36 38 39 45 40 106 2 76 29 141 79 191 49
49 89 66 168 72 68 4 71 5 115 52 58 62 98 81 188 91 66 7 75 6 93 -12 16 -16
28 -19 47 -14 15 3 39 9 54 12 56 11 45 60 -15 66 l-42 4 47 1 c45 2 50 5 74
45 49 78 100 117 174 131 42 7 115 -3 157 -24z m1141 -13 c2 -11 -3 -17 -16
-17 -23 0 -37 26 -19 34 19 7 32 1 35 -17z m-1733 -77 c16 -18 16 -21 2 -43
-17 -27 -60 -40 -76 -24 -17 17 -13 58 7 73 24 19 46 17 67 -6z m1032 -86 c-3
-3 -12 -4 -19 -1 -8 3 -5 6 6 6 11 1 17 -2 13 -5z m110 0 c-3 -3 -12 -4 -19
-1 -8 3 -5 6 6 6 11 1 17 -2 13 -5z m437 -20 c20 -8 20 -43 0 -72 -27 -39 -76
-24 -76 24 0 40 36 63 76 48z m558 -159 c4 -21 1 -25 -18 -25 -29 0 -34 36 -6
43 9 3 18 5 18 6 1 0 4 -10 6 -24z m-329 -136 c15 -24 -16 -69 -46 -69 -44 0
-62 43 -31 75 20 20 63 16 77 -6z m-1108 -105 c139 -20 195 -39 309 -106 102
-61 274 -190 336 -252 25 -26 55 -42 105 -57 91 -27 280 -97 326 -120 94 -47
191 -223 148 -266 -15 -15 7 -113 25 -113 16 0 46 33 76 83 21 36 23 37 40 22
23 -21 40 -89 40 -160 0 -43 -7 -67 -29 -108 -31 -55 -58 -143 -47 -154 3 -4
19 6 34 20 16 15 33 27 39 27 19 0 35 -29 29 -54 -19 -76 -185 -161 -421 -216
-182 -42 -157 -37 -420 -81 -306 -50 -351 -54 -503 -40 l-142 14 -39 -26
c-116 -77 -211 -75 -291 5 -35 35 -90 140 -90 173 0 40 -2 41 -300 170 -36 16
-73 36 -83 44 -25 21 -110 135 -185 248 -129 193 -272 524 -272 630 0 90 161
211 355 268 237 69 671 91 960 49z m-889 -2859 c22 -34 45 -115 39 -136 -6
-18 -72 -49 -91 -42 -6 2 -17 15 -25 29 -7 14 -26 32 -41 40 -28 14 -148 20
-148 7 0 -5 -2 -42 -4 -83 -5 -94 3 -110 53 -110 38 0 61 16 74 53 4 11 17 17
34 17 51 0 58 -12 61 -109 4 -80 2 -91 -17 -110 -31 -31 -70 -28 -82 8 -11 32
-45 51 -89 51 -22 0 -30 -5 -31 -17 0 -10 -2 -52 -3 -93 -5 -122 -6 -120 78
-120 66 0 74 2 100 29 15 15 30 41 35 57 9 35 43 50 94 40 30 -6 37 -11 37
-30 0 -26 -15 -112 -30 -165 l-9 -36 -263 3 c-160 3 -268 8 -275 14 -23 19
-15 56 15 70 l27 13 3 263 2 263 -30 17 c-31 18 -39 49 -18 70 8 8 70 12 207
13 108 1 210 5 226 9 48 12 54 11 71 -15z m671 2 c11 -11 26 -172 19 -200 -6
-26 -10 -28 -53 -25 -45 3 -48 5 -71 50 -18 36 -35 53 -68 69 -71 34 -131 9
-167 -69 -19 -41 -21 -65 -21 -177 0 -109 4 -138 21 -176 30 -68 57 -89 114
-89 76 0 79 3 79 81 0 66 -1 70 -27 80 -53 21 -58 26 -56 55 4 45 26 54 132
54 124 0 166 -12 179 -49 12 -33 6 -46 -25 -55 -13 -4 -23 -13 -24 -19 -1 -7
-3 -25 -4 -42 -2 -16 0 -51 5 -77 5 -26 7 -53 5 -60 -15 -37 -154 -88 -240
-88 -104 0 -220 51 -280 122 -98 115 -112 335 -30 473 42 72 93 113 185 148
19 8 319 2 327 -6z m570 -15 c67 -35 112 -80 146 -146 30 -58 31 -67 32 -176
0 -148 -24 -220 -100 -296 -74 -74 -138 -96 -280 -95 -60 0 -135 3 -165 7 -87
10 -116 50 -60 82 l30 17 0 267 c0 254 -1 267 -19 273 -32 10 -43 30 -32 58 9
23 16 26 73 30 35 2 124 3 198 3 119 -1 140 -4 177 -24z m629 10 c6 -4 44
-106 84 -227 129 -394 123 -380 172 -408 24 -14 28 -21 22 -39 -4 -13 -12 -26
-18 -30 -19 -13 -281 -9 -294 4 -20 20 -14 55 13 72 26 17 32 45 15 77 -10 17
-22 19 -108 19 -107 0 -122 -6 -122 -52 0 -22 8 -33 30 -46 32 -18 36 -32 20
-63 -10 -17 -22 -19 -128 -19 -79 0 -122 4 -130 12 -20 20 -14 58 11 67 12 5
29 17 39 27 21 24 182 500 173 514 -3 5 -17 10 -30 10 -53 0 -69 25 -45 71 10
17 22 19 148 19 75 0 142 -4 148 -8z m-2361 -1237 c27 -26 31 -40 14 -51 -6
-3 -22 5 -35 20 -29 30 -88 37 -98 10 -13 -34 -4 -46 52 -71 31 -14 65 -33 75
-41 22 -20 22 -64 -1 -92 -35 -43 -152 -27 -168 23 -10 32 10 39 36 12 34 -37
110 -33 110 5 0 24 -25 48 -58 56 -47 11 -92 52 -92 83 0 45 33 71 91 71 40 0
55 -5 74 -25z m356 -4 c27 -27 29 -35 29 -100 0 -89 -11 -117 -54 -137 -45
-22 -98 -12 -126 24 -19 24 -21 37 -18 113 3 78 5 89 28 108 39 32 104 29 141
-8z m224 19 c3 -6 9 -56 11 -112 3 -56 8 -106 10 -110 3 -4 29 -8 59 -8 48 0
76 -12 62 -26 -2 -3 -40 -6 -83 -7 l-79 -2 -3 138 c-2 126 3 159 23 127z m345
-86 c0 -52 5 -104 11 -115 16 -30 49 -39 82 -23 27 14 27 15 27 119 0 65 4
106 11 111 22 13 30 -22 27 -123 -3 -93 -5 -104 -28 -125 -44 -41 -135 -25
-159 29 -12 25 -15 180 -5 207 3 9 12 16 20 16 11 0 14 -21 14 -96z m510 81
c0 -10 -10 -15 -28 -15 -46 0 -52 -15 -52 -132 0 -101 -1 -108 -20 -108 -18 0
-20 8 -22 118 l-3 117 -32 3 c-21 2 -33 9 -33 18 0 11 19 14 95 14 78 0 95 -3
95 -15z m200 -121 c0 -124 -2 -135 -17 -132 -16 3 -18 18 -21 123 -3 129 0
145 23 145 13 0 15 -21 15 -136z m316 130 c34 -9 54 -55 54 -124 0 -84 -21
-127 -70 -141 -46 -14 -87 -3 -112 32 -19 26 -27 135 -13 178 16 51 74 73 141
55z m290 -50 c35 -67 72 -110 84 -98 5 5 10 40 12 79 2 58 6 70 21 73 16 3 17
-6 15 -130 -3 -124 -4 -133 -23 -135 -15 -2 -31 16 -69 77 -27 44 -55 80 -62
80 -11 0 -14 -19 -14 -80 0 -73 -2 -80 -20 -80 -19 0 -20 7 -20 128 0 71 3
132 7 135 19 19 42 3 69 -49z m459 31 c27 -26 31 -40 14 -50 -5 -4 -21 5 -34
19 -30 32 -79 35 -95 7 -16 -31 -3 -47 60 -74 69 -30 95 -62 81 -99 -12 -32
-29 -45 -71 -53 -64 -11 -138 38 -115 76 5 7 17 1 35 -16 22 -21 35 -26 66
-23 34 3 39 6 42 31 3 25 -2 30 -55 53 -74 33 -93 50 -93 85 0 65 114 96 165
44z"/>
<path d="M4940 7359 c-48 -21 -130 -101 -130 -125 0 -60 53 -70 90 -19 69 96
189 110 273 30 20 -19 37 -39 37 -45 0 -5 5 -10 11 -10 8 0 10 14 6 41 -7 51
-44 92 -111 125 -60 29 -115 30 -176 3z"/>
<path d="M5293 7178 c-28 -14 -42 -59 -25 -86 7 -10 16 -9 47 3 22 10 59 15
88 14 54 -3 76 13 64 44 -12 31 -127 48 -174 25z"/>
<path d="M4449 7120 c-35 -19 -99 -83 -99 -99 0 -5 6 -13 13 -18 28 -22 47
-22 75 2 16 13 49 35 73 47 37 20 44 28 44 53 0 27 -3 30 -35 32 -20 2 -51 -6
-71 -17z"/>
<path d="M5823 7030 c-24 -10 -39 -50 -29 -76 5 -12 13 -14 34 -9 108 28 183
10 229 -55 33 -46 43 -50 43 -15 0 54 -55 122 -122 149 -41 17 -120 20 -155 6z"/>
<path d="M4179 6988 c-43 -11 -110 -69 -133 -115 -27 -54 -32 -120 -11 -143
34 -37 47 -24 69 70 12 52 97 120 149 120 29 0 47 17 47 46 0 35 -45 43 -121
22z"/>
<path d="M5330 6650 c-30 -5 -107 -13 -170 -19 -271 -26 -506 -54 -512 -60 -4
-4 -3 -20 1 -36 8 -24 9 -26 10 -8 1 28 34 47 59 34 9 -5 25 -33 35 -63 25
-70 76 -173 99 -198 15 -16 31 -20 86 -20 58 0 215 17 307 34 17 3 89 15 160
26 72 11 157 25 191 30 81 13 114 13 94 0 -8 -5 -25 -10 -37 -10 -13 0 -23 -4
-23 -10 0 -5 -17 -10 -37 -10 -21 0 -45 -5 -53 -11 -20 -14 22 -8 172 22 89
18 118 28 118 39 0 26 -144 152 -272 238 -41 28 -54 32 -110 31 -35 -1 -88 -5
-118 -9z"/>
<path d="M4160 6634 c-25 -9 -62 -32 -83 -52 -37 -36 -97 -144 -97 -176 0 -11
30 -24 103 -47 56 -17 115 -32 132 -33 30 -1 30 0 37 64 4 36 16 101 28 145
12 44 23 87 23 95 3 21 -86 24 -143 4z"/>
<path d="M4377 6633 c-20 -33 -49 -165 -54 -240 -7 -115 3 -136 49 -98 25 21
40 25 99 25 74 0 83 -5 131 -71 l17 -24 1 32 c0 35 -49 183 -86 254 -41 83
-137 156 -157 122z"/>
<path d="M4671 6464 c0 -11 3 -14 6 -6 3 7 2 16 -1 19 -3 4 -6 -2 -5 -13z"/>
<path d="M4691 6413 c-1 -12 4 -25 9 -28 12 -7 12 2 0 30 -8 19 -9 19 -9 -2z"/>
<path d="M4710 6360 c0 -5 5 -10 11 -10 5 0 7 5 4 10 -3 6 -8 10 -11 10 -2 0
-4 -4 -4 -10z"/>
<path d="M4730 6337 c0 -28 68 -129 81 -121 6 3 3 11 -6 18 -9 6 -29 34 -45
61 -16 28 -30 46 -30 42z"/>
<path d="M5450 6310 c-12 -7 -8 -10 15 -10 17 0 37 5 45 10 12 7 8 10 -15 10
-16 0 -37 -5 -45 -10z"/>
<path d="M5350 6290 l-35 -7 42 -2 c23 0 45 4 48 9 7 11 -3 11 -55 0z"/>
<path d="M5223 6263 c15 -2 39 -2 55 0 15 2 2 4 -28 4 -30 0 -43 -2 -27 -4z"/>
<path d="M5080 6240 c0 -6 21 -8 58 -4 77 9 78 14 4 14 -35 0 -62 -4 -62 -10z"/>
<path d="M4905 6219 c-18 -4 6 -6 60 -2 50 3 92 7 94 9 8 7 -124 2 -154 -7z"/>
<path d="M5115 5981 c-3 -6 1 -25 9 -43 l14 -33 1 28 c1 24 5 28 24 25 16 -2
31 -22 58 -79 31 -63 43 -79 75 -94 49 -23 92 -34 174 -46 36 -5 74 -13 85
-18 11 -5 27 -12 35 -14 8 -3 -4 -6 -27 -6 -24 -1 -43 -5 -43 -11 0 -6 35 -10
85 -10 101 0 105 7 43 74 -39 42 -62 54 -258 132 -118 47 -223 90 -232 95 -23
12 -35 11 -43 0z"/>
<path d="M4750 5955 c-24 -14 -24 -15 16 -9 52 8 106 -18 157 -75 44 -49 48
-41 7 13 -58 77 -124 103 -180 71z"/>
<path d="M6310 5914 c-93 -27 -355 -74 -409 -74 -58 0 -161 -23 -161 -35 0
-22 50 -81 90 -106 28 -18 90 -30 90 -17 0 4 -12 8 -26 8 -33 0 -61 15 -101
53 -36 34 -41 52 -18 61 10 3 33 -11 62 -40 26 -24 59 -47 73 -50 14 -3 41 -9
61 -14 20 -6 58 -10 84 -10 70 0 50 -9 -41 -19 l-79 -8 71 -2 c87 -1 227 17
268 35 51 23 109 68 133 103 25 37 31 109 11 129 -14 14 -4 16 -108 -14z m-82
-211 c-10 -2 -28 -2 -40 0 -13 2 -5 4 17 4 22 1 32 -1 23 -4z"/>
<path d="M5151 5874 c0 -11 3 -14 6 -6 3 7 2 16 -1 19 -3 4 -6 -2 -5 -13z"/>
<path d="M5172 5830 c0 -14 2 -19 5 -12 2 6 2 18 0 25 -3 6 -5 1 -5 -13z"/>
<path d="M4726 5788 c-9 -12 -16 -38 -16 -57 0 -39 8 -35 26 12 6 17 15 40 19
50 10 25 -11 21 -29 -5z"/>
<path d="M5190 5791 c0 -6 4 -13 10 -16 6 -3 7 1 4 9 -7 18 -14 21 -14 7z"/>
<path d="M5230 5750 c0 -9 75 -33 88 -29 6 2 -12 11 -39 20 -27 8 -49 13 -49
9z"/>
<path d="M4823 5688 c-31 -33 -46 -103 -39 -170 9 -75 22 -111 63 -176 26 -42
38 -53 56 -50 38 5 52 51 51 168 0 88 -4 114 -23 158 -21 46 -61 92 -81 92 -3
0 -16 -10 -27 -22z m78 -204 c17 -48 -9 -82 -39 -52 -13 13 -16 60 -5 71 14
15 34 6 44 -19z"/>
<path d="M5378 5703 c23 -2 59 -2 80 0 20 2 1 4 -43 4 -44 0 -61 -2 -37 -4z"/>
<path d="M5160 5469 c0 -12 39 -79 46 -79 2 0 1 12 -2 27 -7 25 -6 26 30 20
20 -3 36 -2 36 4 0 5 -10 9 -23 9 -13 0 -27 4 -32 9 -18 16 -55 23 -55 10z"/>
<path d="M5280 5429 c0 -8 36 -19 63 -19 10 0 16 4 13 9 -7 11 -76 20 -76 10z"/>
<path d="M5395 5400 c46 -12 107 -12 100 0 -3 6 -34 9 -68 9 -50 -1 -56 -3
-32 -9z"/>
<path d="M5583 5380 c21 -4 43 -12 49 -18 18 -18 1 -40 -34 -45 -23 -3 -18 -4
20 -5 28 -1 52 1 52 5 0 4 -10 22 -22 40 -20 28 -28 33 -63 32 l-40 -1 38 -8z"/>
<path d="M5260 5350 c14 -11 36 -19 50 -19 21 1 21 2 5 6 -11 3 -24 8 -30 13
-5 4 -19 10 -30 14 -16 5 -15 2 5 -14z"/>
<path d="M5341 5316 c8 -8 108 -10 116 -3 3 4 -22 7 -57 7 -35 0 -61 -2 -59
-4z"/>
<path d="M4905 5230 c-18 -8 -17 -9 8 -9 15 -1 27 4 27 9 0 12 -8 12 -35 0z"/>
<path d="M5392 3828 c-9 -9 -12 -82 -12 -269 0 -215 2 -259 15 -269 32 -27
125 21 155 81 11 21 25 80 32 131 10 82 9 103 -6 163 -21 87 -49 130 -102 155
-47 23 -65 25 -82 8z"/>
<path d="M6091 3693 c-6 -21 -22 -76 -35 -123 -14 -47 -21 -89 -17 -93 4 -4
39 -7 77 -5 67 3 69 4 66 28 -1 14 -11 52 -21 85 -11 33 -24 79 -31 103 -13
52 -26 54 -39 5z"/>
<path d="M4106 2651 c-13 -15 -16 -34 -14 -97 3 -75 4 -79 30 -92 29 -13 63
-4 80 22 14 21 9 141 -8 164 -19 27 -64 29 -88 3z"/>
<path d="M5720 2651 c-5 -11 -10 -51 -10 -90 0 -58 4 -75 20 -91 25 -25 41
-25 71 -1 31 25 40 137 15 176 -21 32 -80 35 -96 6z"/>
</g>
</svg>
